<svg xmlns="http://www.w3.org/2000/svg" viewBox="0 0 800 300" width="100%" height="100%">

    <g stroke="#010101" stroke-width="7" fill="none" stroke-linecap="round" stroke-linejoin="round">

        <path
            d="M 210,120 
             C 150,105 90,140 90,200 
             C 90,250 130,270 160,260 
             C 185,250 190,225 180,215 
             C 170,205 145,210 145,225 
             C 145,235 155,240 160,235" />

        <path
            d="M 205,120 
             L 210,95 
             L 280,140 
             L 250,165 
             L 220,150" />

        <path d="M 220,150 L 235,175 L 270,165 L 245,185 L 180,205" />
        <path d="M 195,160 L 215,165 L 200,180 Z" />

        <circle cx="240" cy="130" r="7" />
        <circle cx="240" cy="130" r="2" fill="#010101" stroke="none" />
    </g>

    <text x="300" y="175" font-family="'Poppins', 'Montserrat', 'Segoe UI', sans-serif"
        font-weight="500" font-size="72" fill="#010101" letter-spacing="-1">undefined ai</text>
</svg>